HIERARCHY
ROOT Hips
{
    OFFSET 0.000000 0.000000 0.000000
    CHANNELS 6 Xposition Yposition Zposition Zrotation Xrotation Yrotation
    JOINT Spine
    {
        OFFSET -0.000000 14.517291 0.000000
        CHANNELS 3 Zrotation Xrotation Yrotation
        JOINT Spine1
        {
            OFFSET -0.000000 37.558300 0.000000
            CHANNELS 3 Zrotation Xrotation Yrotation
            JOINT Neck
            {
                OFFSET -0.000000 37.404057 3.400369
                CHANNELS 3 Zrotation Xrotation Yrotation
                JOINT Head
                {
                    OFFSET -0.000000 24.785618 -3.540803
                    CHANNELS 3 Zrotation Xrotation Yrotation
                    End Site
                    {
                        OFFSET -0.000000 35.408028 0.000000
                    }
                }
            }
            JOINT LeftShoulder
            {
                OFFSET 6.992933 33.973492 -0.192664
                CHANNELS 3 Zrotation Xrotation Yrotation
                JOINT LeftArm
                {
                    OFFSET 21.527611 0.000000 0.000000
                    CHANNELS 3 Zrotation Xrotation Yrotation
                    JOINT LeftForeArm
                    {
                        OFFSET 56.353916 0.000000 0.000000
                        CHANNELS 3 Zrotation Xrotation Yrotation
                        JOINT LeftHand
                        {
                            OFFSET 47.774071 0.000000 0.000000
                            CHANNELS 3 Zrotation Xrotation Yrotation
                            End Site
                            {
                                OFFSET 26.556021 0.000000 0.000000
                            }
                        }
                    }
                }
            }
            JOINT RightShoulder
            {
                OFFSET -7.065357 33.973492 -0.192664
                CHANNELS 3 Zrotation Xrotation Yrotation
                JOINT RightArm
                {
                    OFFSET -21.527611 0.000000 0.000000
                    CHANNELS 3 Zrotation Xrotation Yrotation
                    JOINT RightForeArm
                    {
                        OFFSET -56.353916 0.000000 0.000000
                        CHANNELS 3 Zrotation Xrotation Yrotation
                        JOINT RightHand
                        {
                            OFFSET -47.774071 0.000000 0.000000
                            CHANNELS 3 Zrotation Xrotation Yrotation
                            End Site
                            {
                                OFFSET -26.556021 0.000000 0.000000
                            }
                        }
                    }
                }
            }
        }
    }
    JOINT LeftUpLeg
    {
        OFFSET 17.704014 0.000000 0.000000
        CHANNELS 3 Zrotation Xrotation Yrotation
        JOINT LeftLeg
        {
            OFFSET -0.000000 -81.181816 0.000000
            CHANNELS 3 Zrotation Xrotation Yrotation
            JOINT LeftFoot
            {
                OFFSET -0.000000 -62.821102 0.000000
                CHANNELS 3 Zrotation Xrotation Yrotation
                JOINT LeftToeBase
                {
                    OFFSET -0.000000 -11.507608 26.556021
                    CHANNELS 3 Zrotation Xrotation Yrotation
                    End Site
                    {
                        OFFSET -0.000000 0.000000 7.081605
                    }
                }
            }
        }
    }
    JOINT RightUpLeg
    {
        OFFSET -17.704014 0.000000 0.000000
        CHANNELS 3 Zrotation Xrotation Yrotation
        JOINT RightLeg
        {
            OFFSET -0.000000 -81.181816 0.000000
            CHANNELS 3 Zrotation Xrotation Yrotation
            JOINT RightFoot
            {
                OFFSET -0.000000 -62.821102 0.000000
                CHANNELS 3 Zrotation Xrotation Yrotation
                JOINT RightToeBase
                {
                    OFFSET -0.000000 -11.507608 26.556021
                    CHANNELS 3 Zrotation Xrotation Yrotation
                    End Site
                    {
                        OFFSET -0.000000 0.000000 7.081605
                    }
                }
            }
        }
    }
}
MOTION
Frames:    4
Frame Time:    0.008333
35.602783    159.586121    -83.582855    -3.181608    -4.447359    99.591431    2.001175    -1.723446    16.027233    -8.393163    -2.789983    5.121758    -7.582606    12.134606    -21.661165    21.802958    -6.609399    -18.057743    14.416465    -12.370087    0.185228    -7.662013    -27.371689    -7.638188    -8.469668    -53.617680    -91.820396    -29.169779    -51.932850    -42.258358    -18.261501    6.137597    0.839822    17.706524    24.362097    17.549105    15.637733    16.258093    0.322658    -11.731286    14.212978    19.994419    12.465971    -23.683491    -32.128181    -6.869347    29.537071    -34.219845    -3.828613    -15.328691    23.239267    0.000000    0.000000    0.000000    -12.501207    -2.055563    -42.287674    10.137429    30.332739    -24.664406    7.320323    -6.414979    -34.263725    0.000000    0.000000    0.000000    
35.587753    159.573517    -83.600494    -3.213101    -4.394233    99.699051    1.916341    -1.678842    16.003099    -8.329979    -2.852447    5.111419    -7.627146    12.184766    -21.693438    21.839947    -6.617114    -18.085058    14.408285    -12.360484    0.159453    -7.637107    -27.301760    -7.587835    -8.524890    -53.544403    -91.898659    -29.162437    -51.902279    -42.255013    -18.306971    6.194584    0.842166    17.703712    24.309727    17.570351    15.659664    16.279488    0.322928    -11.700077    14.233129    20.060148    12.373815    -23.759472    -31.993958    -6.808538    29.567701    -34.360344    -3.825484    -15.272032    23.168032    0.000000    0.000000    0.000000    -12.578233    -2.088619    -42.324986    10.109846    30.421883    -24.690863    7.340771    -6.433533    -34.242054    0.000000    0.000000    0.000000    
35.575634    159.558502    -83.619667    -3.238097    -4.341168    99.796143    1.873576    -1.672008    15.947916    -8.311090    -2.831457    5.095282    -7.657968    12.203499    -21.696854    21.873375    -6.628179    -18.080206    14.421544    -12.364930    0.166708    -7.619253    -27.227150    -7.549624    -8.322271    -53.446648    -91.780495    -29.084488    -51.673862    -42.281441    -18.340525    6.194340    0.905203    17.719601    24.326727    17.538612    15.639273    16.242580    0.371469    -11.651966    14.202770    20.011311    12.301598    -23.804045    -32.080513    -6.870584    29.520199    -34.212612    -3.864464    -15.227971    23.054415    0.000000    0.000000    0.000000    -12.660087    -2.110334    -42.320923    10.116445    30.506207    -24.724087    7.376086    -6.464850    -34.246105    0.000000    0.000000    0.000000    
35.568325    159.539932    -83.640747    -3.256140    -4.293739    99.881058    1.853437    -1.662213    15.897791    -8.328976    -2.802044    5.080440    -7.638593    12.242301    -21.710878    21.887108    -6.683679    -18.085436    14.478672    -12.358904    0.155441    -7.597367    -27.167330    -7.520904    -8.647172    -53.398174    -92.042824    -29.216808    -51.817734    -42.318890    -18.351379    6.196457    0.953828    17.736782    24.294876    17.500732    15.586983    16.368856    0.452540    -11.126215    14.448556    19.619913    12.243466    -23.842964    -32.064491    -6.885245    29.492271    -34.208130    -3.890023    -15.201517    22.969486    0.000000    0.000000    0.000000    -12.733668    -2.119818    -42.318340    10.125515    30.583323    -24.725677    7.405272    -6.512949    -34.266521    0.000000    0.000000    0.000000    
